<svg width="26" height="26" viewBox="0 0 26 26" fill="none" xmlns="http://www.w3.org/2000/svg">
<circle opacity="0.2" cx="20.0928" cy="20.6992" r="5" fill="#D7D6DB"/>
<path fill-rule="evenodd" clip-rule="evenodd" d="M17.1572 0.75C20.8851 0.75 23.9072 3.77208 23.9072 7.5V17.5C23.9072 21.2279 20.8851 24.25 17.1572 24.25H7.15723C3.4293 24.25 0.407227 21.2279 0.407227 17.5V7.5C0.407227 3.77208 3.4293 0.75 7.15723 0.75H17.1572ZM17.1572 2.25H7.15723C4.25773 2.25 1.90723 4.60051 1.90723 7.5V17.5C1.90723 20.3995 4.25773 22.75 7.15723 22.75H17.1572C20.0567 22.75 22.4072 20.3995 22.4072 17.5V7.5C22.4072 4.60051 20.0567 2.25 17.1572 2.25ZM12.9004 6.39823C12.8507 6.03215 12.5369 5.75 12.1572 5.75L12.0555 5.75685L11.9578 5.77679C11.6404 5.86411 11.4072 6.15482 11.4072 6.5V11.749L6.15723 11.75L6.05546 11.7568C5.68938 11.8065 5.40723 12.1203 5.40723 12.5L5.41407 12.6018C5.46374 12.9678 5.77753 13.25 6.15723 13.25L11.4072 13.249V18.5L11.4141 18.6018C11.4637 18.9678 11.7775 19.25 12.1572 19.25L12.259 19.2432C12.6251 19.1935 12.9072 18.8797 12.9072 18.5V13.25H18.1572L18.259 13.2432C18.6251 13.1935 18.9072 12.8797 18.9072 12.5L18.9004 12.3982C18.8507 12.0322 18.5369 11.75 18.1572 11.75H12.9072V6.5L12.9004 6.39823Z" fill="#D7D6DB"/>
<path d="M12.1572 5.75V5.5H12.1488L12.1404 5.50056L12.1572 5.75ZM12.9004 6.39823L13.1498 6.38145L13.1492 6.37301L13.1481 6.36462L12.9004 6.39823ZM12.0555 5.75685L12.0387 5.50741L12.0219 5.50854L12.0054 5.51191L12.0555 5.75685ZM11.9578 5.77679L11.9078 5.53185L11.8996 5.53353L11.8915 5.53574L11.9578 5.77679ZM11.4072 11.749L11.4073 11.999L11.6572 11.999V11.749H11.4072ZM6.15723 11.75L6.15718 11.5L6.1488 11.5L6.14045 11.5006L6.15723 11.75ZM6.05546 11.7568L6.03868 11.5074L6.03023 11.508L6.02185 11.5091L6.05546 11.7568ZM5.40723 12.5H5.15723V12.5084L5.15779 12.5168L5.40723 12.5ZM5.41407 12.6018L5.16464 12.6186L5.1652 12.627L5.16634 12.6354L5.41407 12.6018ZM6.15723 13.25V13.5H6.15727L6.15723 13.25ZM11.4072 13.249H11.6572V12.999L11.4072 12.999L11.4072 13.249ZM11.4072 18.5H11.1572V18.5084L11.1578 18.5168L11.4072 18.5ZM11.4141 18.6018L11.1646 18.6186L11.1652 18.627L11.1663 18.6354L11.4141 18.6018ZM12.1572 19.25V19.5H12.1656L12.174 19.4994L12.1572 19.25ZM12.259 19.2432L12.2758 19.4926L12.2842 19.492L12.2926 19.4909L12.259 19.2432ZM12.9072 13.25V13H12.6572V13.25H12.9072ZM18.1572 13.25V13.5H18.1656L18.174 13.4994L18.1572 13.25ZM18.259 13.2432L18.2758 13.4926L18.2842 13.492L18.2926 13.4909L18.259 13.2432ZM18.9072 12.5H19.1572V12.4916L19.1567 12.4832L18.9072 12.5ZM18.9004 12.3982L19.1498 12.3814L19.1492 12.373L19.1481 12.3646L18.9004 12.3982ZM12.9072 11.75H12.6572V12H12.9072V11.75ZM12.9072 6.5H13.1572V6.4916L13.1567 6.48322L12.9072 6.5ZM24.1572 7.5C24.1572 3.63401 21.0232 0.5 17.1572 0.5V1C20.7471 1 23.6572 3.91015 23.6572 7.5H24.1572ZM24.1572 17.5V7.5H23.6572V17.5H24.1572ZM17.1572 24.5C21.0232 24.5 24.1572 21.366 24.1572 17.5H23.6572C23.6572 21.0899 20.7471 24 17.1572 24V24.5ZM7.15723 24.5H17.1572V24H7.15723V24.5ZM0.157227 17.5C0.157227 21.366 3.29123 24.5 7.15723 24.5V24C3.56738 24 0.657227 21.0899 0.657227 17.5H0.157227ZM0.157227 7.5V17.5H0.657227V7.5H0.157227ZM7.15723 0.5C3.29123 0.5 0.157227 3.63401 0.157227 7.5H0.657227C0.657227 3.91015 3.56738 1 7.15723 1V0.5ZM17.1572 0.5H7.15723V1H17.1572V0.5ZM7.15723 2.5H17.1572V2H7.15723V2.5ZM2.15723 7.5C2.15723 4.73858 4.3958 2.5 7.15723 2.5V2C4.11966 2 1.65723 4.46243 1.65723 7.5H2.15723ZM2.15723 17.5V7.5H1.65723V17.5H2.15723ZM7.15723 22.5C4.3958 22.5 2.15723 20.2614 2.15723 17.5H1.65723C1.65723 20.5376 4.11966 23 7.15723 23V22.5ZM17.1572 22.5H7.15723V23H17.1572V22.5ZM22.1572 17.5C22.1572 20.2614 19.9186 22.5 17.1572 22.5V23C20.1948 23 22.6572 20.5376 22.6572 17.5H22.1572ZM22.1572 7.5V17.5H22.6572V7.5H22.1572ZM17.1572 2.5C19.9186 2.5 22.1572 4.73858 22.1572 7.5H22.6572C22.6572 4.46243 20.1948 2 17.1572 2V2.5ZM12.1572 6C12.4102 6 12.6196 6.18803 12.6526 6.43184L13.1481 6.36462C13.0819 5.87628 12.6637 5.5 12.1572 5.5V6ZM12.0722 6.00628L12.174 5.99944L12.1404 5.50056L12.0387 5.50741L12.0722 6.00628ZM12.0079 6.02173L12.1055 6.00179L12.0054 5.51191L11.9078 5.53185L12.0079 6.02173ZM11.6572 6.5C11.6572 6.27024 11.8124 6.07608 12.0242 6.01784L11.8915 5.53574C11.4684 5.65214 11.1572 6.03941 11.1572 6.5H11.6572ZM11.6572 11.749V6.5H11.1572V11.749H11.6572ZM6.15727 12L11.4073 11.999L11.4072 11.499L6.15718 11.5L6.15727 12ZM6.07224 12.0063L6.17401 11.9994L6.14045 11.5006L6.03868 11.5074L6.07224 12.0063ZM5.65723 12.5C5.65723 12.2471 5.84526 12.0377 6.08906 12.0046L6.02185 11.5091C5.5335 11.5754 5.15723 11.9935 5.15723 12.5H5.65723ZM5.66351 12.585L5.65666 12.4832L5.15779 12.5168L5.16464 12.6186L5.66351 12.585ZM6.15723 13C5.9043 13 5.69488 12.812 5.6618 12.5682L5.16634 12.6354C5.23259 13.1237 5.65076 13.5 6.15723 13.5V13ZM11.4072 12.999L6.15718 13L6.15727 13.5L11.4073 13.499L11.4072 12.999ZM11.6572 18.5V13.249H11.1572V18.5H11.6572ZM11.6635 18.585L11.6567 18.4832L11.1578 18.5168L11.1646 18.6186L11.6635 18.585ZM12.1572 19C11.9043 19 11.6949 18.812 11.6618 18.5682L11.1663 18.6354C11.2326 19.1237 11.6508 19.5 12.1572 19.5V19ZM12.2422 18.9937L12.1404 19.0006L12.174 19.4994L12.2758 19.4926L12.2422 18.9937ZM12.6572 18.5C12.6572 18.7529 12.4692 18.9623 12.2254 18.9954L12.2926 19.4909C12.7809 19.4246 13.1572 19.0065 13.1572 18.5H12.6572ZM12.6572 13.25V18.5H13.1572V13.25H12.6572ZM18.1572 13H12.9072V13.5H18.1572V13ZM18.2422 12.9937L18.1404 13.0006L18.174 13.4994L18.2758 13.4926L18.2422 12.9937ZM18.6572 12.5C18.6572 12.7529 18.4692 12.9623 18.2254 12.9954L18.2926 13.4909C18.7809 13.4246 19.1572 13.0065 19.1572 12.5H18.6572ZM18.6509 12.415L18.6578 12.5168L19.1567 12.4832L19.1498 12.3814L18.6509 12.415ZM18.1572 12C18.4102 12 18.6196 12.188 18.6526 12.4318L19.1481 12.3646C19.0819 11.8763 18.6637 11.5 18.1572 11.5V12ZM12.9072 12H18.1572V11.5H12.9072V12ZM12.6572 6.5V11.75H13.1572V6.5H12.6572ZM12.6509 6.41501L12.6578 6.51678L13.1567 6.48322L13.1498 6.38145L12.6509 6.41501Z" fill="#D7D6DB"/>
</svg>
