<svg width="25" height="25" viewBox="0 0 25 25" fill="none" xmlns="http://www.w3.org/2000/svg">
<path d="M17.7109 3.09644C15.8809 3.09644 14.2766 3.91245 13.0716 5.45632C12.9109 5.66223 12.7676 5.86822 12.6406 6.06772C12.5137 5.86818 12.3704 5.66223 12.2097 5.45632C11.0046 3.91245 9.40035 3.09644 7.57031 3.09644C4.11322 3.09644 1.64062 5.99111 1.64062 9.46458C1.64062 13.4363 4.89581 17.1795 12.1953 21.6015C12.3322 21.6844 12.4864 21.7259 12.6406 21.7259C12.7948 21.7259 12.9491 21.6845 13.0859 21.6016C20.3854 17.1795 23.6406 13.4363 23.6406 9.46462C23.6406 5.99296 21.1701 3.09644 17.7109 3.09644ZM19.6513 14.4101C18.1316 16.1057 15.8351 17.8911 12.6406 19.8595C9.44611 17.8911 7.14965 16.1057 5.62997 14.4101C4.10209 12.7053 3.35938 11.0876 3.35938 9.46462C3.35938 6.96367 5.04951 4.81519 7.57031 4.81519C8.85405 4.81519 9.94863 5.37335 10.8237 6.47421C11.5234 7.3546 11.8182 8.26369 11.8203 8.27017C11.9322 8.62918 12.2646 8.87371 12.6407 8.87371C13.0167 8.87371 13.3491 8.62922 13.4611 8.27017C13.4638 8.26149 13.7497 7.38076 14.4264 6.51383C15.3062 5.38667 16.4113 4.81514 17.7109 4.81514C20.2344 4.81514 21.9219 6.96569 21.9219 9.46458C21.9219 11.0875 21.1792 12.7052 19.6513 14.4101Z" fill="#D9D7DB"/>
</svg>
