<svg width="24" height="24" viewBox="0 0 24 24" fill="none" xmlns="http://www.w3.org/2000/svg">
<path d="M22.002 22.9984C22.1576 22.9985 22.3111 22.9621 22.4501 22.8923C22.5892 22.8224 22.71 22.721 22.8028 22.5962C22.8957 22.4713 22.9581 22.3264 22.985 22.1732C23.0119 22.0199 23.0025 21.8624 22.9577 21.7134L21.6348 17.3038C22.9125 14.9829 23.3096 12.2788 22.753 9.68859C22.1965 7.09838 20.7237 4.79608 18.6054 3.20487C16.4872 1.61366 13.8658 0.840478 11.223 1.02744C8.58031 1.21439 6.09386 2.34893 4.22071 4.22251C2.34757 6.09608 1.21361 8.5828 1.02726 11.2256C0.840908 13.8683 1.6147 16.4896 3.20639 18.6075C4.79809 20.7254 7.10073 22.1976 9.69107 22.7535C12.2814 23.3095 14.9854 22.9118 17.306 21.6336L21.7156 22.9565C21.8086 22.9841 21.905 22.9983 22.002 22.9984ZM17.1803 19.5565C16.9981 19.5563 16.8194 19.606 16.6635 19.7001C14.7799 20.8416 12.5435 21.2536 10.3768 20.8585C8.21007 20.4633 6.26312 19.2883 4.90375 17.5554C3.54438 15.8225 2.86675 13.6518 2.99886 11.4533C3.13098 9.25481 4.06371 7.18084 5.62082 5.62322C7.17793 4.0656 9.25159 3.13219 11.45 2.99935C13.6485 2.86651 15.8194 3.54344 17.5528 4.90223C19.2861 6.26103 20.4618 8.2076 20.8576 10.3742C21.2535 12.5408 20.8422 14.7773 19.7014 16.6613C19.6294 16.7809 19.5834 16.9142 19.5662 17.0527C19.549 17.1912 19.5611 17.3318 19.6016 17.4654L20.5165 20.5122L17.4686 19.5984C17.3751 19.5704 17.2779 19.5563 17.1803 19.5565Z" fill="#D8D6D9"/>
</svg>
