<svg width="24" height="25" viewBox="0 0 24 25" fill="none" xmlns="http://www.w3.org/2000/svg">
<path d="M23.1946 5.14346L21.5122 5.14338V3.40189C21.5122 3.00318 21.2205 2.66444 20.8262 2.60545C20.7573 2.5951 19.1184 2.35704 17.1448 2.71615C14.9447 3.11647 13.19 4.1037 12 5.59614C10.8098 4.1037 9.05516 3.11647 6.85509 2.71615C4.88144 2.35712 3.24249 2.5951 3.17373 2.60545C2.77938 2.66452 2.48767 3.00326 2.48767 3.40189V5.14338H0.805331C0.360645 5.14338 0 5.50402 0 5.94879V21.1249C0 21.3857 0.126222 21.6303 0.338827 21.7814C0.551432 21.9325 0.823997 21.9713 1.07022 21.8855C1.13066 21.8645 7.16563 19.8049 11.6657 21.8576C11.8781 21.9545 12.1219 21.9545 12.3343 21.8576C16.8218 19.8107 22.8697 21.8647 22.9298 21.8855C23.0161 21.9155 23.1055 21.9303 23.1945 21.9303C23.3596 21.9303 23.523 21.8796 23.6612 21.7815C23.8738 21.6304 24 21.3858 24 21.125V5.94887C23.9999 5.5041 23.6394 5.14346 23.1946 5.14346ZM1.61074 20.0473V6.75412H2.48767V17.4794C2.48767 17.7134 2.59005 17.9357 2.7671 18.0886C2.94415 18.2416 3.17963 18.3102 3.41106 18.276C3.4555 18.2696 6.95416 17.7892 9.51027 19.543C6.36159 19.0046 3.21025 19.6274 1.61074 20.0473ZM11.1946 18.8167C10.0688 17.7995 8.6024 17.1117 6.85509 16.7938C6.0142 16.6407 5.23408 16.5961 4.61025 16.5961C4.42504 16.5961 4.25356 16.6001 4.09849 16.6063V4.14144H4.09841C5.64628 4.07162 9.41168 4.23712 11.1946 7.25957V18.8167ZM12.8053 7.25965C14.5818 4.25013 18.3531 4.07712 19.9015 4.14346V16.6063C19.2241 16.579 18.2353 16.5953 17.1448 16.7938C15.3975 17.1117 13.9311 17.7994 12.8053 18.8167V7.25965ZM14.487 19.5435C17.0434 17.7887 20.5439 18.2695 20.5876 18.2759C20.8196 18.3108 21.0549 18.2426 21.2325 18.0897C21.4101 17.9366 21.5122 17.7139 21.5122 17.4794V6.7542H22.3892V20.0473C20.7892 19.6272 17.6365 19.0042 14.487 19.5435Z" fill="#D7D6DB"/>
</svg>
