<svg width="25" height="25" viewBox="0 0 25 25" fill="none" xmlns="http://www.w3.org/2000/svg">
<path d="M20.5001 8.22462L14.5001 2.96462C13.9501 2.47266 13.238 2.20068 12.5001 2.20068C11.7622 2.20068 11.0501 2.47266 10.5001 2.96462L4.50009 8.22462C4.18246 8.50869 3.92899 8.85717 3.75657 9.24686C3.58414 9.63655 3.49671 10.0585 3.50009 10.4846V19.2246C3.50009 20.0203 3.81617 20.7833 4.37877 21.3459C4.94138 21.9085 5.70445 22.2246 6.50009 22.2246H18.5001C19.2957 22.2246 20.0588 21.9085 20.6214 21.3459C21.184 20.7833 21.5001 20.0203 21.5001 19.2246V10.4746C21.5021 10.0502 21.4139 9.63016 21.2416 9.2423C21.0692 8.85444 20.8165 8.50757 20.5001 8.22462ZM14.5001 20.2246H10.5001V15.2246C10.5001 14.9594 10.6055 14.705 10.793 14.5175C10.9805 14.33 11.2349 14.2246 11.5001 14.2246H13.5001C13.7653 14.2246 14.0197 14.33 14.2072 14.5175C14.3947 14.705 14.5001 14.9594 14.5001 15.2246V20.2246ZM19.5001 19.2246C19.5001 19.4898 19.3947 19.7442 19.2072 19.9317C19.0197 20.1193 18.7653 20.2246 18.5001 20.2246H16.5001V15.2246C16.5001 14.429 16.184 13.6659 15.6214 13.1033C15.0588 12.5407 14.2957 12.2246 13.5001 12.2246H11.5001C10.7044 12.2246 9.94138 12.5407 9.37877 13.1033C8.81616 13.6659 8.50009 14.429 8.50009 15.2246V20.2246H6.50009C6.23488 20.2246 5.98052 20.1193 5.79299 19.9317C5.60545 19.7442 5.50009 19.4898 5.50009 19.2246V10.4746C5.50027 10.3326 5.53069 10.1923 5.58931 10.063C5.64794 9.93368 5.73343 9.81833 5.8401 9.72462L11.8401 4.47462C12.0226 4.3143 12.2572 4.22588 12.5001 4.22588C12.743 4.22588 12.9776 4.3143 13.1601 4.47462L19.1601 9.72462C19.2668 9.81833 19.3523 9.93368 19.4109 10.063C19.4695 10.1923 19.4999 10.3326 19.5001 10.4746V19.2246Z" fill="#D9D7DB"/>
</svg>
