<svg width="25" height="25" viewBox="0 0 25 25" fill="none" xmlns="http://www.w3.org/2000/svg">
<path d="M22.1635 20.5145L18.4535 16.8345C19.8936 15.0389 20.591 12.7598 20.4023 10.4658C20.2136 8.17182 19.1532 6.0373 17.439 4.50116C15.7249 2.96502 13.4873 2.14402 11.1864 2.20698C8.88556 2.26994 6.69624 3.21208 5.06866 4.83966C3.44108 6.46724 2.49895 8.65655 2.43599 10.9574C2.37303 13.2583 3.19402 15.4959 4.73016 17.21C6.2663 18.9242 8.40082 19.9846 10.6948 20.1733C12.9888 20.362 15.2679 19.6646 17.0635 18.2245L20.7435 21.9045C20.8365 21.9982 20.9471 22.0726 21.0689 22.1234C21.1908 22.1742 21.3215 22.2003 21.4535 22.2003C21.5855 22.2003 21.7162 22.1742 21.8381 22.1234C21.96 22.0726 22.0706 21.9982 22.1635 21.9045C22.3438 21.718 22.4445 21.4689 22.4445 21.2095C22.4445 20.9502 22.3438 20.701 22.1635 20.5145ZM11.4535 18.2245C10.069 18.2245 8.71567 17.814 7.56453 17.0448C6.41338 16.2756 5.51617 15.1824 4.98636 13.9033C4.45655 12.6242 4.31792 11.2167 4.58802 9.85888C4.85812 8.50101 5.5248 7.25373 6.50377 6.27477C7.48274 5.2958 8.73002 4.62911 10.0879 4.35902C11.4458 4.08892 12.8532 4.22754 14.1323 4.75736C15.4114 5.28717 16.5046 6.18438 17.2738 7.33552C18.043 8.48667 18.4535 9.84004 18.4535 11.2245C18.4535 13.081 17.716 14.8615 16.4033 16.1743C15.0905 17.487 13.31 18.2245 11.4535 18.2245Z" fill="#D9D7DB"/>
</svg>
