<svg width="24" height="24" viewBox="0 0 24 24" fill="none" xmlns="http://www.w3.org/2000/svg">
<path d="M13.9994 23.0005H13.9704C13.7656 22.9944 13.5676 22.9255 13.4033 22.8032C13.2389 22.6808 13.1161 22.511 13.0514 22.3165L10.2084 13.7916L1.68346 10.9486C1.48917 10.8837 1.31947 10.7608 1.19731 10.5964C1.07515 10.432 1.00643 10.234 1.00043 10.0293C0.99443 9.82455 1.05145 9.62291 1.16377 9.45163C1.27609 9.28034 1.4383 9.14768 1.62846 9.07158L21.6284 1.07161C21.8101 0.998871 22.0092 0.981064 22.201 1.0204C22.3927 1.05973 22.5687 1.15448 22.7071 1.29289C22.8455 1.43131 22.9403 1.6073 22.9796 1.79905C23.0189 1.9908 23.0011 2.18988 22.9284 2.37161L14.9284 22.3715C14.8542 22.5573 14.726 22.7165 14.5604 22.8286C14.3948 22.9407 14.1994 23.0006 13.9994 23.0005ZM4.90545 9.91558L11.3154 12.0526C11.463 12.101 11.597 12.1834 11.7068 12.2932C11.8166 12.403 11.899 12.537 11.9474 12.6846L14.0844 19.0945L20.2044 3.7946L4.90545 9.91558Z" fill="#D8D6D9"/>
</svg>
