<svg width="34" height="34" viewBox="0 0 34 34" fill="none" xmlns="http://www.w3.org/2000/svg">
<circle opacity="0.1" cx="17" cy="17" r="17" fill="white"/>
<circle cx="17" cy="17" r="10" fill="#C4C4C4"/>
<path d="M16.9999 7L14.5103 12L16.9999 17L22.2959 15.2249L24.071 9.92891C22.2613 8.1193 19.7613 7 16.9999 7V7Z" fill="#FFE278"/>
<path d="M17 7C14.4408 7 11.8816 7.97633 9.92896 9.92895L11.7041 15.2249L17 17V7Z" fill="#B0D16F"/>
<path d="M9.92895 9.92896C8.1193 11.7386 7 14.2386 7 17L12 19.4896L17 17L9.92895 9.92896Z" fill="#45C5FF"/>
<path d="M7 17C7 19.5592 7.97633 22.1184 9.92895 24.0711L15.2249 22.2959L17 17H7Z" fill="#0CA8ED"/>
<path d="M9.92896 24.0711C11.7386 25.8807 14.2386 27 17 27L19.4896 22L17 17L9.92896 24.0711Z" fill="#1365C2"/>
<path d="M17 27C19.5592 27 22.1184 26.0237 24.0711 24.0711L22.2959 18.7751L17 17V27Z" fill="#F71E78"/>
<path d="M24.0711 24.0711C25.8807 22.2614 27 19.7614 27 17L22 14.5104L17 17L24.0711 24.0711Z" fill="#FF776B"/>
<path d="M24.0711 9.92896L17 17H27C27 14.4408 26.0237 11.8816 24.0711 9.92896Z" fill="#FFB54C"/>
</svg>
