<svg width="34" height="34" viewBox="0 0 34 34" fill="none" xmlns="http://www.w3.org/2000/svg">
<circle opacity="0.1" cx="17" cy="17" r="17" fill="white"/>
<circle cx="17" cy="17" r="10" fill="white"/>
<path d="M22.5973 13.4594L21.7561 13.4594V12.5886C21.7561 12.3893 21.6103 12.2199 21.4131 12.1904C21.3787 12.1852 20.5592 12.0662 19.5724 12.2458C18.4723 12.4459 17.595 12.9395 17 13.6858C16.4049 12.9395 15.5276 12.4459 14.4275 12.2458C13.4407 12.0663 12.6212 12.1852 12.5869 12.1904C12.3897 12.22 12.2438 12.3893 12.2438 12.5886V13.4594H11.4027C11.1803 13.4594 11 13.6397 11 13.8621V21.4501C11 21.5805 11.0631 21.7028 11.1694 21.7784C11.2757 21.8539 11.412 21.8733 11.5351 21.8304C11.5653 21.82 14.5828 20.7901 16.8329 21.8165C16.9391 21.8649 17.0609 21.8649 17.1671 21.8165C19.4109 20.7931 22.4348 21.82 22.4649 21.8304C22.508 21.8455 22.5527 21.8529 22.5973 21.8529C22.6798 21.8529 22.7615 21.8275 22.8306 21.7784C22.9369 21.7029 23 21.5806 23 21.4502V13.8621C23 13.6397 22.8197 13.4594 22.5973 13.4594ZM11.8054 20.9114V14.2648H12.2438V19.6274C12.2438 19.7444 12.295 19.8555 12.3836 19.932C12.4721 20.0085 12.5898 20.0428 12.7055 20.0257C12.7278 20.0225 14.4771 19.7823 15.7551 20.6592C14.1808 20.39 12.6051 20.7014 11.8054 20.9114ZM16.5973 20.296C16.0344 19.7874 15.3012 19.4435 14.4275 19.2846C14.0071 19.2081 13.617 19.1858 13.3051 19.1858C13.2125 19.1858 13.1268 19.1877 13.0492 19.1908V12.9584H13.0492C13.8231 12.9235 15.7058 13.0063 16.5973 14.5175V20.296ZM17.4026 14.5175C18.2909 13.0128 20.1766 12.9263 20.9508 12.9594V19.1908C20.612 19.1772 20.1176 19.1853 19.5724 19.2846C18.6988 19.4435 17.9656 19.7874 17.4026 20.296V14.5175ZM18.2435 20.6594C19.5217 19.782 21.272 20.0224 21.2938 20.0257C21.4098 20.0431 21.5274 20.009 21.6162 19.9325C21.7051 19.856 21.7561 19.7447 21.7561 19.6274V14.2648H22.1946V20.9114C21.3946 20.7013 19.8183 20.3898 18.2435 20.6594Z" fill="#262626"/>
</svg>
