<svg width="50" height="50" viewBox="0 0 50 50" fill="none" xmlns="http://www.w3.org/2000/svg">
<g clip-path="url(#clip0)">
<path d="M1.63025 26.6304H33.1523C34.0523 26.6304 34.7827 25.9 34.7827 25C34.7827 24.1 34.0523 23.3696 33.1523 23.3696H1.63025C0.730246 23.3696 -0.000186533 24.1 -0.000186533 25C-0.000186533 25.9 0.730246 26.6304 1.63025 26.6304Z" fill="#C4C4C4"/>
<path d="M24.4564 35.3259C24.874 35.3259 25.2912 35.1675 25.6088 34.8479L34.3043 26.1523C34.9412 25.5151 34.9412 24.4825 34.3043 23.8456L25.6088 15.1501C24.9719 14.5132 23.9394 14.5132 23.3021 15.1501C22.6652 15.787 22.6652 16.8195 23.3021 17.4564L30.8456 25L23.3021 32.5435C22.6652 33.1804 22.6652 34.213 23.3021 34.8499C23.6217 35.1675 24.0393 35.3259 24.4564 35.3259V35.3259Z" fill="#C4C4C4"/>
<path d="M26.0868 48.9131C39.2716 48.9131 50 38.1848 50 25C50 11.8152 39.2716 1.08679 26.0868 1.08679C16.1936 1.08679 7.45863 7.03891 3.83035 16.2523C3.49997 17.089 3.91315 18.0348 4.74986 18.3672C5.58697 18.6936 6.53275 18.2868 6.86513 17.4457C9.99782 9.48894 17.5434 4.34766 26.0868 4.34766C37.474 4.34766 46.7391 13.6132 46.7391 25C46.7391 36.3867 37.474 45.6523 26.0868 45.6523C17.5434 45.6523 9.99782 40.511 6.86513 32.5566C6.53474 31.7152 5.58896 31.3087 4.74986 31.6348C3.91315 31.9651 3.49997 32.9129 3.83035 33.75C7.45863 42.961 16.1936 48.9131 26.0868 48.9131V48.9131Z" fill="#C4C4C4"/>
</g>
<defs>
<clipPath id="clip0">
<rect width="50" height="50" fill="white" transform="matrix(-1 0 0 1 50 0)"/>
</clipPath>
</defs>
</svg>
