<svg width="34" height="34" viewBox="0 0 34 34" fill="none" xmlns="http://www.w3.org/2000/svg">
<circle opacity="0.1" cx="17" cy="17" r="17" fill="white"/>
<path d="M17.3537 19.894C17.6617 19.894 17.8157 20.02 17.8157 20.272V20.622C17.8157 20.874 17.6617 21 17.3537 21H15.3237C15.0157 21 14.8617 20.874 14.8617 20.622V20.272C14.8617 20.02 15.0157 19.894 15.3237 19.894H15.6877L14.8897 17.836H11.1517L10.3817 19.894H10.7457C11.0537 19.894 11.2077 20.02 11.2077 20.272V20.622C11.2077 20.874 11.0537 21 10.7457 21H8.82772C8.52906 21 8.37972 20.874 8.37972 20.622V20.272C8.37972 20.02 8.52906 19.894 8.82772 19.894H9.19172L12.3837 11.522C12.4211 11.4287 12.4817 11.354 12.5657 11.298C12.6497 11.2327 12.7431 11.2 12.8457 11.2H13.2657C13.3591 11.2 13.4477 11.228 13.5317 11.284C13.6157 11.34 13.6764 11.4147 13.7137 11.508L16.9897 19.894H17.3537ZM14.4697 16.73L12.9997 12.936L11.5717 16.73H14.4697ZM24.8908 19.894C25.1894 19.894 25.3388 20.02 25.3388 20.272V20.622C25.3388 20.874 25.1894 21 24.8908 21H23.7708C23.6308 21 23.5094 20.9533 23.4068 20.86C23.3134 20.7573 23.2668 20.6313 23.2668 20.482V19.6C23.0894 20.0387 22.7814 20.4073 22.3428 20.706C21.9134 20.9953 21.4561 21.14 20.9708 21.14C20.3174 21.14 19.7901 20.9533 19.3888 20.58C18.9874 20.1973 18.7868 19.6933 18.7868 19.068C18.7868 18.4147 19.0061 17.9107 19.4448 17.556C19.8928 17.2013 20.5274 17.024 21.3488 17.024C21.9741 17.024 22.6134 17.0987 23.2668 17.248V16.618C23.2668 16.0393 23.1314 15.61 22.8608 15.33C22.5901 15.05 22.1701 14.91 21.6008 14.91C21.1621 14.91 20.8354 14.994 20.6208 15.162C20.6861 15.274 20.7188 15.3953 20.7188 15.526C20.7188 15.7407 20.6441 15.9227 20.4948 16.072C20.3454 16.2213 20.1634 16.296 19.9488 16.296C19.6968 16.296 19.4961 16.2167 19.3468 16.058C19.1974 15.8993 19.1228 15.6847 19.1228 15.414C19.1228 14.9567 19.3608 14.5833 19.8368 14.294C20.3128 14.0047 20.9194 13.86 21.6568 13.86C22.5808 13.86 23.2854 14.1073 23.7708 14.602C24.2654 15.0967 24.5128 15.7967 24.5128 16.702V19.894H24.8908ZM21.2648 20.118C21.6194 20.118 21.9461 20.0247 22.2448 19.838C22.5528 19.642 22.7954 19.3853 22.9728 19.068C23.1594 18.7413 23.2574 18.3867 23.2668 18.004C22.8468 17.9387 22.2681 17.906 21.5308 17.906C20.5228 17.906 20.0188 18.2793 20.0188 19.026C20.0188 19.3713 20.1308 19.642 20.3548 19.838C20.5788 20.0247 20.8821 20.118 21.2648 20.118Z" fill="white"/>
</svg>
